<svg id="OBJECTS" xmlns="http://www.w3.org/2000/svg" viewBox="0 0 279.07 199.4"><defs><style>.cls-1{font-size:86.69px;font-family:SegoeUI-BoldItalic, Segoe UI;font-weight:700;font-style:italic;}.cls-1,.cls-2{fill:#0f4949;}</style></defs><title>логотип</title><text class="cls-1" transform="translate(12.89 174.43)">DRIVE</text><path class="cls-2" d="M509.11,205.31l4.64,4.64a78.31,78.31,0,0,1,22.45-4.27v-6A84.06,84.06,0,0,0,509.11,205.31Z" transform="translate(-400 -162.33)"/><path class="cls-2" d="M476.58,237.11A79.1,79.1,0,0,1,507,212.63l-4.47-4.46a84.93,84.93,0,0,0-33.26,28.94Z" transform="translate(-400 -162.33)"/><path class="cls-2" d="M595.75,229.26c3.68.82,7.06,1.65,10.11,2.47a85.22,85.22,0,0,0-29.33-23.57L572,212.65A78.79,78.79,0,0,1,595.75,229.26Z" transform="translate(-400 -162.33)"/><path class="cls-2" d="M570,205.3a84.31,84.31,0,0,0-27.09-5.57v6A78,78,0,0,1,565.31,210Z" transform="translate(-400 -162.33)"/><path class="cls-2" d="M472.09,243.78h-6.86a83.87,83.87,0,0,0-5.66,12.72l6.43-.25A77.38,77.38,0,0,1,472.09,243.78Z" transform="translate(-400 -162.33)"/><path class="cls-2" d="M434.87,256.41a79.74,79.74,0,0,1,9.82-1.11c2.55-.13,5.42-.26,8.54-.39a91,91,0,0,1,162.7-20.3c1.52.54,2.34.86,2.34.86a171.77,171.77,0,0,1,19.67,3.73,107.6,107.6,0,0,0-19.36-29l3.25-6.44a7.12,7.12,0,0,0-2-8.81l-1.18-.92-13.9-10.9-1.18-.92a7.13,7.13,0,0,0-9,.2l-6,5.16a107.62,107.62,0,0,0-45.75-11.74L540,167.22a7.14,7.14,0,0,0-7.63-4.84l-1.48.18-17.54,2.13-1.48.18a7.11,7.11,0,0,0-6.24,6.53l-.78,10.11a107.61,107.61,0,0,0-38.52,22.82l-10.08-5.08a7.11,7.11,0,0,0-8.81,2l-.92,1.17-10.9,13.91-.92,1.18a7.13,7.13,0,0,0,.2,9l7.84,9.13A107.75,107.75,0,0,0,434.87,256.41Z" transform="translate(-400 -162.33)"/><path class="cls-2" d="M672.89,258.11a28.42,28.42,0,0,0-4.38-3.71c.71-2.67,1.54-5.9,2.25-8.69a4.55,4.55,0,0,0-5-5.63l-26.21,3.17c-9.22-2.12-16.51-3-16.51-3a233.74,233.74,0,0,0-76.33-13.5c-36.08,0-66.32,24.09-75.71,32.43-8.37.31-15.74.6-21.54.9-39,2-49.5,29-49.5,29,28.51-25,44.18-22.33,68.93-22s136-5,151.17-6.16,30.71.16,45.12,8.5c12.74,7.36,9.55,16.66,9.55,16.66S685.58,271.61,672.89,258.11Zm-131.1-1.42c-18.12.73-37.34,1.36-54.37,1.95a2.45,2.45,0,0,1-1.51-4.44c12.6-9.09,34.78-21.82,60.71-22.3,1.48,0,3,0,4.42,0a1.87,1.87,0,0,1,1.69,2.62l-9.32,21.07A1.86,1.86,0,0,1,541.79,256.69Zm72.59-7.62a40.32,40.32,0,0,1-4.46,2.21c-5,2.12-29,3.69-57.65,5a1.86,1.86,0,0,1-1.78-2.62c2.78-6.14,6.64-14.8,8.74-19.52a2.93,2.93,0,0,1,2.88-1.72,214.12,214.12,0,0,1,51.7,10.9A3.2,3.2,0,0,1,614.38,249.07Z" transform="translate(-400 -162.33)"/></svg>